<svg width="350" height="112" viewBox="0 0 350 112" fill="none" xmlns="http://www.w3.org/2000/svg">
<path d="M96.1032 57.6392C95.9749 57.4875 95.8393 57.3322 95.7036 57.1805C98.068 54.378 99.3071 51.283 99.3071 48.0832C99.3071 44.9087 98.1267 41.8822 95.799 39.0905C95.4507 38.6716 95.0695 38.2527 94.6662 37.8446C94.2703 37.4473 93.8525 37.05 93.4126 36.6672C92.8187 36.1508 92.1735 35.6379 91.4954 35.1504C91.2205 34.9517 90.9382 34.7567 90.6523 34.5653C82.727 29.2564 70.5018 26.2119 57.1145 26.2119V32.9726C69.0611 32.9726 80.2379 35.6777 87.0049 40.2137C87.2285 40.3654 87.4484 40.5171 87.661 40.6688C88.1742 41.0407 88.6581 41.4199 89.098 41.8064C89.4096 42.0772 89.7065 42.3589 89.9851 42.637C90.2564 42.9115 90.5093 43.1932 90.7366 43.4641C92.0196 45.0026 92.6684 46.5591 92.6684 48.0868C92.6684 49.9214 91.719 51.5683 90.59 52.8792C82.6573 47.7184 70.6007 44.7642 57.4151 44.7642V44.7786C51.4326 44.7859 45.7581 45.8476 41.4362 47.7654C34.4017 50.8929 33.3496 55.1437 33.3496 57.4008C33.3496 59.658 34.4017 63.9088 41.4362 67.0363C45.7764 68.9649 51.473 70.0266 57.4774 70.0266V69.9616C70.7034 69.9075 82.9066 66.8124 90.6779 61.5974C90.8062 61.7382 90.9272 61.8755 91.0445 62.0163C92.3275 63.5548 92.9763 65.1114 92.9763 66.6391C92.9763 69.261 91.0298 71.5074 89.3949 72.9303C89.1163 73.1723 88.8194 73.4142 88.5115 73.6526C82.0268 78.6437 70.1279 81.7496 57.4554 81.7532C56.7809 81.7351 45.3989 81.3993 39.1525 78.7484L36.6011 84.9891C44.1708 88.1997 56.8139 88.4995 57.3491 88.5139H57.4188C71.6931 88.5139 84.8128 84.9746 92.5145 79.0446C92.9287 78.7267 93.3319 78.3981 93.7095 78.0695C97.5732 74.7072 99.615 70.7562 99.615 66.6427C99.6076 63.4573 98.4273 60.4345 96.1032 57.6392ZM39.9846 57.3972C39.9846 55.642 45.9341 51.5321 57.4738 51.5321V51.5177C68.0347 51.5249 77.9799 53.6485 84.8128 57.278C78.0018 60.9798 67.8331 63.1973 57.1109 63.1973V63.2551C45.8131 63.1684 39.9846 59.1307 39.9846 57.3972Z" fill="#1733FF"/>
<path d="M41.2019 38.1913C45.5688 38.1913 49.1089 34.7036 49.1089 30.4013C49.1089 26.099 45.5688 22.6113 41.2019 22.6113C36.835 22.6113 33.2949 26.099 33.2949 30.4013C33.2949 34.7036 36.835 38.1913 41.2019 38.1913Z" fill="#1733FF"/>
<path d="M278.143 40.8939C280.034 39.0308 280.034 36.0102 278.143 34.1471C276.252 32.284 273.186 32.284 271.295 34.1471C269.404 36.0102 269.404 39.0308 271.295 40.8939C273.186 42.757 276.252 42.757 278.143 40.8939Z" fill="#1733FF"/>
<path d="M120.852 33.0986H142.754C151.38 33.0986 157.685 38.3281 157.685 45.1935C157.685 49.7043 155.031 53.3664 150.386 55.3274C155.694 56.6348 159.345 60.5569 159.345 66.4436C159.345 73.6377 152.707 78.8672 144.081 78.8672H120.852V33.0986ZM142.421 52.059C147.729 52.059 150.383 49.7693 150.383 45.8472C150.383 41.9251 146.732 39.9641 142.421 39.9641H128.15V52.059H142.421ZM143.748 72.0053C148.392 72.0053 151.71 69.3906 151.71 65.4649C151.71 61.8678 148.726 58.5994 143.748 58.5994H128.15V72.0053H143.748V72.0053Z" fill="#1733FF"/>
<path d="M226.358 49.2708C223.972 47.9634 221.234 47.2158 218.316 47.2158C214.467 47.2158 210.922 48.516 208.099 50.6865V47.8731H201.131V78.867H208.099V61.5282C209.078 56.8549 213.286 53.3301 218.316 53.3301C220.383 53.3301 222.308 53.926 223.928 54.9517L226.358 49.2708Z" fill="#1733FF"/>
<path d="M278.262 47.877H271.293V78.8709H278.262V47.877Z" fill="#1733FF"/>
<path d="M316.584 74.9737L304.824 63.388L316.584 51.8023L311.793 47.082C311.793 47.082 306.228 52.5643 300.033 58.6677L288.274 47.082L283.482 51.8023L295.242 63.388C289.183 69.3578 283.728 74.7317 283.482 74.9737L288.27 79.6939L300.03 68.1082L311.793 79.6939L316.584 74.9737Z" fill="#1733FF"/>
<path d="M248.862 47.2196C244.529 47.2196 240.581 48.8592 237.619 51.5425V33.1816H230.65V78.8708H237.619V75.6746C240.581 78.3579 244.533 79.9975 248.862 79.9975C258.033 79.9975 265.497 72.6445 265.497 63.6086C265.497 54.5726 258.033 47.2196 248.862 47.2196ZM248.048 73.8833C242.296 73.8833 237.615 69.2714 237.615 63.6049C237.615 57.9385 242.296 53.3266 248.048 53.3266C253.799 53.3266 258.481 57.9385 258.481 63.6049C258.481 69.275 253.799 73.8833 248.048 73.8833Z" fill="#1733FF"/>
<path d="M170.537 77.0437L170.739 77.181C170.86 77.2604 170.985 77.3363 171.106 77.4121C171.234 77.4916 171.366 77.571 171.498 77.6469L171.692 77.7588C171.883 77.8672 172.077 77.9719 172.275 78.073C174.669 79.2973 177.231 79.9149 179.903 79.9149L180.138 79.9077C182.579 79.8752 184.933 79.3298 187.132 78.2789L187.227 78.2319L184.456 72.6016L184.361 72.6485C182.891 73.3492 181.318 73.685 179.665 73.6453C179.504 73.6417 179.342 73.6309 179.185 73.62C178.994 73.6056 178.804 73.5911 178.613 73.5659C178.503 73.5514 178.393 73.5334 178.283 73.5153L178.25 73.5117C178.03 73.4756 177.814 73.4358 177.598 73.3889C177.535 73.3744 177.469 73.3564 177.407 73.3419L177.323 73.3203C177.066 73.2553 176.842 73.1903 176.637 73.1216C176.579 73.1036 176.524 73.0819 176.465 73.0602L176.381 73.0277C176.139 72.9411 175.93 72.858 175.735 72.7713C175.655 72.7352 175.578 72.6991 175.497 72.6594L175.42 72.6233C175.241 72.5366 175.061 72.4499 174.889 72.3524C174.746 72.2729 174.61 72.1899 174.471 72.1032C174.331 72.0201 174.21 71.9407 174.089 71.8612C173.917 71.742 173.749 71.6156 173.584 71.4892L173.514 71.4351C173.455 71.3881 173.397 71.3448 173.338 71.2942C173.166 71.1534 172.993 70.9945 172.803 70.8139L172.759 70.7742C172.715 70.7344 172.671 70.6911 172.627 70.6478C172.473 70.4925 172.315 70.3227 172.132 70.1097L172.081 70.0519C172.04 70.0085 172.004 69.9616 171.963 69.9146C171.806 69.7232 171.663 69.5246 171.553 69.3729L171.527 69.3368C171.468 69.2573 171.413 69.1779 171.359 69.0948C171.249 68.9323 171.15 68.7626 171.047 68.5928C170.97 68.4628 170.897 68.3292 170.823 68.1956C170.746 68.0475 170.669 67.8922 170.6 67.7369C170.526 67.578 170.457 67.4191 170.394 67.2602L170.288 66.9821H196.476V63.5909C196.476 61.182 195.952 58.8562 194.914 56.6785L194.859 56.5629H194.863L194.815 56.469C193.65 54.0962 191.967 52.0955 189.823 50.5209C189.628 50.38 189.449 50.2536 189.266 50.1308L189.079 50.008C188.95 49.925 188.822 49.8455 188.694 49.7624C188.569 49.6866 188.444 49.6108 188.32 49.5385L188.107 49.4194C187.92 49.3146 187.73 49.2135 187.539 49.1124L187.506 49.0979C185.131 47.8845 182.572 47.2705 179.9 47.2705C179.526 47.2705 179.13 47.285 178.657 47.3211L178.525 47.3319C178.426 47.3391 178.327 47.3463 178.224 47.3536C178.147 47.3608 178.07 47.3716 177.993 47.3825L177.726 47.415C177.62 47.4258 177.513 47.4402 177.407 47.4547C177.308 47.4691 177.213 47.4872 177.114 47.5053L176.857 47.5486C176.769 47.563 176.681 47.5775 176.597 47.5955C176.461 47.6244 176.326 47.6533 176.194 47.6858L175.992 47.7328C175.93 47.7472 175.864 47.7617 175.801 47.7761C175.611 47.8231 175.42 47.8809 175.23 47.935L175.134 47.9603C175.094 47.9711 175.054 47.982 175.013 47.9964C174.786 48.065 174.562 48.1409 174.339 48.2203L174.229 48.2564C173.969 48.3503 173.712 48.4515 173.455 48.5562C173.367 48.5923 173.279 48.632 173.191 48.6754L172.931 48.7909C172.861 48.8235 172.788 48.8523 172.718 48.8848L172.675 48.9065C170.266 50.055 168.235 51.7127 166.637 53.8254C166.49 54.0168 166.362 54.1974 166.237 54.3743C166.193 54.4357 166.153 54.4971 166.113 54.5585C166.029 54.6849 165.948 54.8113 165.867 54.9377C165.79 55.0605 165.713 55.1833 165.64 55.3061C165.6 55.3747 165.559 55.4433 165.519 55.5156C165.413 55.6998 165.31 55.8839 165.207 56.0717L165.189 56.1079C163.961 58.4445 163.338 60.9653 163.338 63.5945L163.342 63.8004C163.345 64.0351 163.349 64.2699 163.364 64.5046C163.378 64.7538 163.397 65.003 163.422 65.2522C163.426 65.2919 163.433 65.3352 163.437 65.375L163.455 65.5122C163.477 65.6928 163.499 65.877 163.525 66.0575C163.536 66.1189 163.547 66.1767 163.558 66.2381L163.602 66.4765C163.624 66.6029 163.646 66.7257 163.671 66.8521C163.69 66.9424 163.712 67.029 163.73 67.1193L163.789 67.3649C163.811 67.4552 163.829 67.5455 163.855 67.6358C163.888 67.7622 163.924 67.885 163.961 68.0078L164.027 68.2389C164.042 68.2967 164.06 68.3545 164.078 68.4159C164.141 68.6109 164.207 68.8023 164.276 68.9937L164.306 69.0804C164.317 69.1165 164.328 69.149 164.342 69.1851C164.438 69.4379 164.537 69.6907 164.643 69.9363C164.724 70.1205 164.808 70.3047 164.896 70.4852L164.932 70.5647C164.947 70.5972 164.962 70.6297 164.98 70.6622L165.002 70.7092C166.168 73.0783 167.843 75.0755 169.984 76.6501L170.017 76.6754C170.185 76.8018 170.358 76.9246 170.537 77.0437ZM170.196 60.4814C170.207 60.4453 170.218 60.4055 170.229 60.3694C170.251 60.3044 170.277 60.2394 170.303 60.1744L170.321 60.1238C170.413 59.8819 170.497 59.6724 170.581 59.481C170.618 59.4052 170.655 59.3293 170.691 59.2535L170.728 59.1776C170.816 58.9971 170.908 58.8201 171.007 58.6431C171.084 58.5059 171.172 58.3759 171.256 58.2423C171.337 58.1122 171.421 57.9822 171.509 57.8558C171.626 57.6897 171.751 57.5272 171.879 57.3683L171.938 57.296C171.985 57.2346 172.033 57.1732 172.084 57.1119C172.22 56.9529 172.37 56.7904 172.561 56.5954L172.62 56.5376C172.66 56.4979 172.7 56.4546 172.74 56.4148C172.894 56.2668 173.063 56.1115 173.276 55.9345L173.338 55.8803C173.386 55.8406 173.433 55.7973 173.485 55.7611C173.657 55.6239 173.84 55.4939 174.023 55.3639L174.053 55.3458C174.141 55.2844 174.229 55.223 174.32 55.1653C174.482 55.0605 174.65 54.963 174.815 54.8691C174.955 54.7897 175.09 54.7138 175.233 54.6452C175.38 54.5694 175.53 54.5007 175.684 54.4321C175.849 54.3563 176.014 54.2877 176.183 54.2227C176.329 54.1649 176.48 54.1107 176.63 54.0601C176.798 54.0023 176.971 53.9518 177.143 53.9048C177.301 53.8615 177.458 53.8218 177.616 53.7857C177.785 53.7459 177.953 53.7134 178.118 53.6845C178.287 53.6556 178.452 53.6304 178.62 53.6087C178.785 53.587 178.95 53.5726 179.119 53.5581C179.291 53.5437 179.463 53.5365 179.636 53.5329C179.812 53.5292 179.984 53.5292 180.156 53.5329C180.31 53.5365 180.461 53.5437 180.611 53.5545C180.809 53.569 181.01 53.587 181.208 53.6123C181.311 53.6268 181.414 53.6412 181.513 53.6593L181.546 53.6665C181.813 53.7098 182.029 53.7495 182.22 53.7965C182.279 53.8109 182.337 53.8254 182.396 53.8398L182.469 53.8579C182.744 53.9301 182.968 53.9951 183.177 54.0637C183.232 54.0818 183.283 54.0999 183.334 54.1215L183.404 54.1468C183.653 54.2371 183.873 54.3238 184.075 54.4105C184.148 54.443 184.218 54.4755 184.288 54.508L184.365 54.5441C184.551 54.6344 184.742 54.7283 184.922 54.8294C185.05 54.9016 185.175 54.9775 185.299 55.0569C185.446 55.1472 185.585 55.2303 185.717 55.3242C185.882 55.4361 186.04 55.5553 186.197 55.6781L186.249 55.7178C186.322 55.7756 186.395 55.8334 186.469 55.8912C186.626 56.0212 186.788 56.1656 186.982 56.3498L187.04 56.4076C187.084 56.4509 187.132 56.4943 187.176 56.5376C187.323 56.6821 187.473 56.8482 187.656 57.0577L187.704 57.1119C187.752 57.166 187.796 57.2166 187.84 57.2708C187.99 57.4549 188.133 57.6464 188.239 57.7944C188.316 57.9028 188.382 57.9967 188.448 58.0906C188.554 58.2495 188.65 58.412 188.749 58.5745C188.829 58.7117 188.906 58.8454 188.98 58.9862C189.255 59.5099 189.478 60.0372 189.643 60.5536L189.698 60.9039H170.119L170.196 60.4814Z" fill="#1733FF"/>
</svg>
