<svg width="43" height="29" viewBox="0 0 43 29" fill="none" xmlns="http://www.w3.org/2000/svg">
<path d="M3.44428 7.92894e-06H39.349C40.2913 7.92894e-06 41.1524 0.38997 41.7859 1.0073L41.8184 1.05601C42.4194 1.67333 42.7931 2.51819 42.7931 3.44424V25.5396C42.7931 26.4819 42.4032 27.343 41.7859 27.9765C41.1523 28.61 40.2912 29 39.3489 29H3.44424C2.50193 29 1.64081 28.61 1.00729 27.9765C0.389968 27.3592 0 26.4981 0 25.5396V3.44424C0 2.50193 0.389962 1.64081 1.00729 1.00729C1.64081 0.389968 2.50193 0 3.44424 0L3.44428 7.92894e-06ZM24.8574 23.8175C24.4674 23.8175 24.1589 23.5087 24.1589 23.1189C24.1589 22.7452 24.4676 22.4367 24.8574 22.4367H30.0238C30.4138 22.4367 30.7223 22.7455 30.7223 23.1189C30.7223 23.5089 30.4136 23.8175 30.0238 23.8175H24.8574ZM24.8574 18.0662C24.4674 18.0662 24.1589 17.7574 24.1589 17.3677C24.1589 16.9939 24.4676 16.6854 24.8574 16.6854H35.2066C35.5803 16.6854 35.8888 16.9942 35.8888 17.3677C35.8888 17.7576 35.5801 18.0662 35.2066 18.0662H24.8574ZM24.8574 12.3149C24.4674 12.3149 24.1589 12.0061 24.1589 11.6164C24.1589 11.2427 24.4676 10.9341 24.8574 10.9341H35.2066C35.5803 10.9341 35.8888 11.2429 35.8888 11.6164C35.8888 12.0064 35.5801 12.3149 35.2066 12.3149H24.8574ZM24.8574 6.56362C24.4674 6.56362 24.1589 6.25485 24.1589 5.86511C24.1589 5.49139 24.4676 5.18287 24.8574 5.18287H35.2066C35.5803 5.18287 35.8888 5.49164 35.8888 5.86511C35.8888 6.25508 35.5801 6.56362 35.2066 6.56362H24.8574ZM18.9437 22.4362C18.7813 21.0065 18.1313 19.7067 17.1566 18.7319C16.0356 17.611 14.4757 16.9122 12.77 16.9122C11.064 16.9122 9.5044 17.6107 8.38347 18.7319C7.4087 19.7067 6.75892 21.0065 6.5963 22.4362H18.9437ZM6.56427 18.7644C6.80809 18.4069 7.10038 18.0659 7.40913 17.7571C8.18906 16.9935 9.11511 16.3762 10.1711 15.9862C10.0575 15.905 9.94378 15.8076 9.84611 15.6936L9.7974 15.6612C9.08269 14.9137 8.62774 13.8902 8.62774 12.7693C8.62774 11.6321 9.09889 10.5924 9.84637 9.84491C10.5938 9.09744 11.6335 8.62628 12.7707 8.62628C13.9079 8.62628 14.9476 9.09744 15.6951 9.84491C16.4426 10.5924 16.9137 11.6321 16.9137 12.7693C16.9137 13.9065 16.4426 14.9462 15.6951 15.6936C15.5977 15.8073 15.484 15.9047 15.3701 15.9862C16.426 16.3761 17.3684 16.9935 18.1321 17.7571C18.4408 18.0659 18.7331 18.4069 18.9769 18.7644V6.56348H6.56447V18.7644L6.56427 18.7644ZM14.72 10.8202C14.2326 10.3166 13.5342 10.0078 12.7704 10.0078C12.0068 10.0078 11.3245 10.3166 10.8208 10.8202C10.3172 11.3238 10.0084 12.0061 10.0084 12.7698C10.0084 13.5173 10.301 14.1995 10.7884 14.6869L10.8209 14.7193C11.3245 15.223 12.0067 15.5317 12.7705 15.5317C13.5341 15.5317 14.2326 15.223 14.72 14.7193C15.2237 14.2319 15.5324 13.5335 15.5324 12.7697C15.5324 12.0061 15.2237 11.3238 14.72 10.8201L14.72 10.8202ZM5.86552 5.18256H19.6749C20.0486 5.18256 20.3571 5.49133 20.3571 5.86481V23.1184C20.3571 23.5084 20.0483 23.8169 19.6749 23.8169H5.86552C5.49179 23.8169 5.18327 23.5081 5.18327 23.1184V5.86481C5.18327 5.49108 5.49204 5.18256 5.86552 5.18256V5.18256ZM39.3493 1.38082H3.44465C2.87606 1.38082 2.37244 1.60816 1.98247 1.98188C1.60874 2.37184 1.38141 2.87546 1.38141 3.44406V25.5394C1.38141 26.108 1.60875 26.6279 1.98247 27.0016C2.35619 27.3753 2.87605 27.6189 3.44465 27.6189H39.3493C39.9179 27.6189 40.4378 27.3751 40.8115 27.0016C41.1852 26.6278 41.4126 26.108 41.4126 25.5394V3.44406C41.4126 2.89171 41.2015 2.38811 40.844 2.01434L40.8115 1.98187C40.4378 1.60814 39.9179 1.38081 39.3493 1.38081L39.3493 1.38082Z" fill="#1733FF"/>
</svg>
