<svg width="28" height="29" viewBox="0 0 28 29" fill="none" xmlns="http://www.w3.org/2000/svg">
<g clip-path="url(#clip0_302_27103)">
<path d="M27.1789 24.8928H16.3833C16.0162 23.4797 14.741 22.4286 13.2144 22.4286C11.6875 22.4286 10.4126 23.4799 10.0454 24.8928H0.821485C0.367485 24.8928 0 25.2605 0 25.7143C0 26.1679 0.367475 26.5358 0.821485 26.5358H10.0454C10.4125 27.949 11.6878 29 13.2144 29C14.7412 29 16.0161 27.9488 16.3833 26.5358H27.1789C27.6329 26.5358 28.0003 26.1681 28.0003 25.7143C28.0003 25.2607 27.6329 24.8928 27.1789 24.8928ZM13.2145 27.3572C12.3088 27.3572 11.5715 26.6204 11.5715 25.7143C11.5715 24.8081 12.3085 24.0713 13.2145 24.0713C14.1201 24.0713 14.8574 24.8081 14.8574 25.7143C14.8572 26.6203 14.1202 27.3572 13.2145 27.3572ZM27.1789 13.6786H22.9552C22.5881 12.2654 21.3128 11.2144 19.7862 11.2144C18.2593 11.2144 16.9845 12.2656 16.6172 13.6786H0.82168C0.36768 13.6786 0.000195846 14.0462 0.000195846 14.5C0.000195846 14.9537 0.367671 15.3215 0.82168 15.3215H16.6172C16.9843 16.7347 18.2596 17.7857 19.7862 17.7857C21.313 17.7857 22.5879 16.7345 22.9552 15.3215H27.1791C27.6331 15.3215 28.0005 14.9539 28.0005 14.5C28.0005 14.0464 27.6329 13.6786 27.1789 13.6786ZM19.7859 16.143C18.8803 16.143 18.143 15.4061 18.143 14.5C18.143 13.5939 18.88 12.857 19.7859 12.857C20.6916 12.857 21.4289 13.5939 21.4289 14.5C21.4289 15.4061 20.6919 16.143 19.7859 16.143ZM0.821534 4.10718H10.0454C10.4125 5.52034 11.6878 6.57139 13.2144 6.57139C14.7412 6.57139 16.0161 5.52014 16.3834 4.10718H27.1789C27.6329 4.10718 28.0004 3.73951 28.0004 3.28569C28.0004 2.83208 27.6329 2.46421 27.1789 2.46421H16.3834C16.0159 1.05105 14.7412 0 13.2144 0C11.6876 0 10.4127 1.05124 10.0454 2.46421H0.821534C0.367534 2.46421 4.92412e-05 2.83187 4.92412e-05 3.28569C4.92412e-05 3.73931 0.367524 4.10718 0.821534 4.10718ZM13.2145 1.64277C14.1201 1.64277 14.8574 2.37962 14.8574 3.28574C14.8574 4.19186 14.1204 4.92871 13.2145 4.92871C12.3088 4.92871 11.5715 4.19186 11.5715 3.28574C11.5715 2.37962 12.3085 1.64277 13.2145 1.64277Z" fill="#1733FF"/>
</g>
<defs>
<clipPath id="clip0_302_27103">
<rect width="28" height="29" fill="white"/>
</clipPath>
</defs>
</svg>
