<svg width="36" height="29" viewBox="0 0 36 29" fill="none" xmlns="http://www.w3.org/2000/svg">
<g clip-path="url(#clip0_302_27094)">
<path d="M35.4764 27.6531H34.1061V16.0349C34.1027 15.6653 33.802 15.3677 33.4328 15.3677C33.0632 15.3677 32.7628 15.6653 32.7592 16.0349V17.6276L31.4474 18.1547C31.1898 18.26 30.9556 18.3537 30.7213 18.4241C30.1357 18.6584 29.5971 18.8459 29.0816 18.9979C28.3671 19.244 27.5943 19.4782 26.6454 19.7125C26.0131 19.8648 25.4976 19.9819 24.9939 20.0757V20.0754C23.9222 20.2975 22.8393 20.4616 21.7496 20.5675C21.1054 20.6379 20.5902 20.6846 20.1099 20.6965C19.4539 20.7432 18.763 20.7669 18.0136 20.7669C17.8964 20.7669 17.7793 20.7669 17.6622 20.755C17.0062 20.7669 16.5025 20.7432 16.0225 20.7083V20.708C14.932 20.6585 13.8451 20.549 12.7664 20.38C12.1223 20.2862 11.5952 20.1928 11.1268 20.0872C10.3421 19.9467 9.52225 19.7477 8.69056 19.5134C8.17534 19.3963 7.63648 19.2324 7.03899 19.0334C6.23099 18.7758 5.43449 18.4945 4.67317 18.2017L3.38482 17.6865L3.38512 16.0349C3.38148 15.6653 3.08109 15.3677 2.71152 15.3677C2.34225 15.3677 2.04155 15.6653 2.03821 16.0349V27.6531H0.667907C0.490096 27.651 0.318965 27.7204 0.193346 27.8464C0.0677261 27.972 -0.00175586 28.1428 6.17889e-05 28.3206C-0.00236562 28.4993 0.0668162 28.672 0.192134 28.7994C0.317754 28.9272 0.488884 28.9994 0.667907 29H35.4766C35.6556 28.9994 35.8268 28.9272 35.9524 28.7994C36.0777 28.672 36.1469 28.4993 36.1444 28.3206C36.1463 28.1428 36.0768 27.972 35.9512 27.8464C35.8255 27.7204 35.6544 27.651 35.4766 27.6531L35.4764 27.6531ZM7.23839 27.6531H3.38521V19.1265L4.18171 19.4426C5.11865 19.8174 6.11424 20.1687 7.13313 20.4849L7.23842 20.5083L7.23839 27.6531ZM11.3025 27.6531H8.57373V20.8949L8.76095 20.9419C9.62752 21.1643 10.4125 21.34 11.1738 21.4805L11.3027 21.5038L11.3025 27.6531ZM16.1864 27.6531H12.6375L12.6378 21.7266L12.8135 21.7499C13.8324 21.8904 14.9217 21.9957 16.0462 22.0661H16.1867L16.1864 27.6531ZM20.2505 27.6531H17.5218V22.1132H18.0136C18.7045 22.1132 19.3957 22.0898 20.0867 22.0546L20.2505 22.0428L20.2505 27.6531ZM25.1229 27.6531H21.5859V21.9374L21.7264 21.9256C22.839 21.8203 23.8932 21.6562 24.9473 21.4571L25.123 21.4219L25.1229 27.6531ZM29.187 27.6531H26.4699V21.1294L26.5751 21.1061C27.524 20.8718 28.2968 20.661 28.988 20.4385L29.187 20.38V27.6531ZM32.7592 27.6531H30.5339V19.9345L30.6277 19.8993C31.061 19.747 31.5061 19.5832 31.9278 19.4075L32.0098 19.5364L31.9512 19.4075L32.7592 19.0677L32.7592 27.6531Z" fill="#1733FF"/>
<path d="M9.12356 5.411C9.84238 5.41433 10.533 5.13123 11.0427 4.6242C11.5525 4.11748 11.8395 3.42836 11.8407 2.70962C11.8416 1.9905 11.5567 1.30078 11.0482 0.792542C10.5399 0.2843 9.85023 -0.000929849 9.1311 2.27746e-06C8.41228 0.00121598 7.72351 0.288254 7.21651 0.79798C6.70979 1.30774 6.42638 1.99833 6.42972 2.71746C6.43032 3.43142 6.71433 4.11627 7.21954 4.62117C7.72444 5.12638 8.40924 5.41037 9.12356 5.411V5.411ZM9.12356 1.34692C9.48646 1.3451 9.8354 1.48802 10.0927 1.74411C10.3503 2.00021 10.4951 2.34823 10.4951 2.71143C10.4951 3.07462 10.3503 3.42265 10.0927 3.67874C9.83543 3.93483 9.48649 4.07774 9.12356 4.07593C8.63778 4.0735 8.18988 3.81286 7.94745 3.3917C7.70532 2.97054 7.70532 2.45227 7.94745 2.0311C8.18989 1.60995 8.63775 1.34931 9.12356 1.34688V1.34692Z" fill="#1733FF"/>
<path d="M7.13286 17.475L7.23815 17.5102V17.7211C7.6948 17.8734 8.1399 18.0139 8.57326 18.131V16.9364C8.57539 16.7586 8.5059 16.5875 8.38028 16.4618C8.25436 16.3362 8.08353 16.2667 7.90572 16.2689C7.38049 16.2613 6.95814 15.8338 6.9572 15.3082V9.62778C6.95812 9.10255 7.38048 8.67499 7.90572 8.66746H10.3535C10.879 8.67504 11.3014 9.10257 11.3023 9.62778V18.7983C11.7122 18.8803 12.1574 18.9507 12.6374 19.0326V9.62744C12.6392 9.02028 12.3995 8.43711 11.9711 8.00655C11.5427 7.57598 10.961 7.33355 10.3536 7.33203H7.90579C7.29742 7.33294 6.71391 7.57508 6.28366 8.00534C5.8534 8.4356 5.61127 9.0191 5.61035 9.62747V15.3079C5.61217 15.7816 5.75934 16.2431 6.03151 16.6302C6.30368 17.0177 6.68812 17.3123 7.13297 17.4746L7.13286 17.475Z" fill="#1733FF"/>
<path d="M18.0718 5.411C18.79 5.411 19.4788 5.12548 19.9862 4.61722C20.4938 4.10898 20.7784 3.4199 20.7772 2.7017C20.7763 1.98349 20.4899 1.29504 19.9807 0.788277C19.4719 0.281557 18.7822 -0.00185511 18.064 9.13917e-06C17.3458 0.00213314 16.6579 0.289784 16.1518 0.79954C15.646 1.3093 15.3632 1.99895 15.3662 2.71747C15.3671 3.43356 15.6527 4.12024 16.1603 4.62537C16.668 5.13088 17.3559 5.41341 18.0719 5.41092L18.0718 5.411ZM18.0718 1.34693C18.4329 1.34845 18.7788 1.49318 19.0337 1.74928C19.2883 2.00537 19.4309 2.35218 19.4306 2.71325C19.43 3.07463 19.2861 3.42084 19.031 3.67629C18.7755 3.93178 18.4293 4.0753 18.0679 4.0759C17.7068 4.07651 17.36 3.9336 17.1039 3.67902C16.8478 3.42445 16.7031 3.07853 16.7016 2.71745C16.704 2.35455 16.8491 2.00744 17.1058 1.75107C17.3622 1.49467 17.7093 1.34933 18.0719 1.34691L18.0718 1.34693Z" fill="#1733FF"/>
<path d="M16.0811 17.4751L16.1864 17.5103V19.396C16.573 19.4309 16.9944 19.4428 17.5215 19.4428L17.5218 16.9364C17.524 16.7586 17.4542 16.5875 17.3286 16.4619C17.2029 16.3363 17.0318 16.2668 16.8543 16.2689C16.5985 16.2716 16.3527 16.1712 16.1719 15.9907C15.9914 15.8098 15.8909 15.564 15.8937 15.3082V9.62779C15.8909 9.3723 15.9914 9.12653 16.1719 8.94569C16.3527 8.76485 16.5985 8.66471 16.8543 8.66745H19.2905H19.2902C19.5457 8.66472 19.7918 8.76485 19.9726 8.94569C20.1531 9.12653 20.2536 9.37231 20.2505 9.62779V19.3724C20.6723 19.349 21.129 19.3138 21.5857 19.2553L21.586 9.62796C21.5847 9.01959 21.3426 8.43608 20.9123 8.00583C20.4821 7.57557 19.8989 7.33344 19.2902 7.33252H16.8543C16.2457 7.33343 15.6625 7.57556 15.2322 8.00583C14.8016 8.43609 14.5595 9.01959 14.5586 9.62796V15.3084C14.5583 15.7827 14.7045 16.2451 14.977 16.6329C15.2495 17.0207 15.6352 17.315 16.0812 17.4752L16.0811 17.4751Z" fill="#1733FF"/>
<path d="M27.0208 5.411C27.739 5.411 28.4278 5.12548 28.9354 4.61722C29.4427 4.10898 29.7273 3.4199 29.7264 2.7017C29.7252 1.98349 29.4388 1.29504 28.9299 0.788277C28.4208 0.281557 27.7314 -0.00185511 27.0129 9.13917e-06C26.2947 0.00213314 25.6068 0.289784 25.101 0.79954C24.5949 1.3093 24.3124 1.99895 24.3155 2.71747C24.3155 3.43386 24.601 4.12047 25.1086 4.626C25.6163 5.1315 26.3045 5.41403 27.0208 5.41092V5.411ZM27.0208 1.34693C27.3822 1.34845 27.7281 1.49318 27.9827 1.74928C28.2372 2.00567 28.3802 2.35218 28.3796 2.71356C28.3789 3.07463 28.2351 3.42085 27.9799 3.67637C27.7245 3.93186 27.3782 4.07537 27.0169 4.07598C26.6558 4.07659 26.309 3.93367 26.0529 3.6791C25.7968 3.42452 25.6521 3.07861 25.6506 2.71753C25.6503 2.35402 25.7947 2.00508 26.0517 1.74812C26.3087 1.49112 26.6574 1.34699 27.0209 1.34699L27.0208 1.34693Z" fill="#1733FF"/>
<path d="M25.0169 17.475L25.1222 17.5102V18.7048C25.5907 18.611 26.0358 18.5057 26.4691 18.3886V16.9361V16.9364C26.4685 16.7574 26.3963 16.5863 26.2689 16.4607C26.1411 16.3354 25.9688 16.2662 25.79 16.2689C25.2645 16.2613 24.8421 15.8338 24.8412 15.3083V9.62781C24.8421 9.10258 25.2645 8.67503 25.79 8.66749H28.2378C28.763 8.67508 29.1854 9.10261 29.1863 9.62781V17.5928C29.69 17.4171 30.1233 17.2648 30.5332 17.101V9.6282C30.5323 9.01983 30.2902 8.43632 29.8599 8.00607C29.4297 7.57581 28.8462 7.33368 28.2378 7.33276H25.7897C25.1826 7.33428 24.6006 7.57672 24.1725 8.00728C23.7441 8.43785 23.5043 9.02105 23.5059 9.62817V15.3086C23.5056 15.7811 23.6503 16.2423 23.9206 16.6298C24.1907 17.0172 24.5733 17.3125 25.0169 17.4754L25.0169 17.475Z" fill="#1733FF"/>
</g>
<defs>
<clipPath id="clip0_302_27094">
<rect width="36" height="29" fill="white"/>
</clipPath>
</defs>
</svg>
